<svg xmlns="http://www.w3.org/2000/svg" data-name="Layer 1" viewBox="0 0 512 512" id="top-rated"><path fill="#ffe966" d="m264.731 12.928 16.596 33.625a9.737 9.737 0 0 0 7.33 5.327l37.109 5.392a9.737 9.737 0 0 1 5.396 16.608l-26.852 26.174a9.737 9.737 0 0 0-2.8 8.618l6.339 36.958a9.737 9.737 0 0 1-14.127 10.264l-33.191-17.449a9.737 9.737 0 0 0-9.062 0l-33.19 17.45a9.737 9.737 0 0 1-14.128-10.265l6.339-36.958a9.737 9.737 0 0 0-2.8-8.618L180.838 73.88a9.737 9.737 0 0 1 5.396-16.608l37.108-5.392a9.737 9.737 0 0 0 7.331-5.327l16.596-33.625a9.737 9.737 0 0 1 17.462 0Z"></path><path fill="#ffe236" d="M331.162 73.88a9.737 9.737 0 0 0-5.396-16.608l-37.108-5.392a9.737 9.737 0 0 1-7.331-5.327L264.73 12.927a9.737 9.737 0 0 0-17.462 0l-2.782 5.638 16.171 32.767a9.737 9.737 0 0 0 7.331 5.326l37.109 5.392a9.737 9.737 0 0 1 5.396 16.608l-26.852 26.174a9.737 9.737 0 0 0-2.8 8.618l6.339 36.959a10.04 10.04 0 0 1 .137 2.119l6.404 3.366a9.737 9.737 0 0 0 14.127-10.264l-6.339-36.958a9.737 9.737 0 0 1 2.8-8.618Z"></path><path fill="#ffe966" d="m86.606 142.345 15.116 30.63a8.869 8.869 0 0 0 6.678 4.852l33.802 4.911a8.869 8.869 0 0 1 4.915 15.128l-24.46 23.842a8.869 8.869 0 0 0-2.55 7.85l5.774 33.665a8.869 8.869 0 0 1-12.868 9.35L82.78 256.678a8.869 8.869 0 0 0-8.255 0l-30.233 15.895a8.869 8.869 0 0 1-12.868-9.35l5.774-33.665a8.869 8.869 0 0 0-2.55-7.85l-24.46-23.842a8.869 8.869 0 0 1 4.915-15.128l33.802-4.911a8.869 8.869 0 0 0 6.678-4.852l15.116-30.63a8.869 8.869 0 0 1 15.907 0zm354.695 0 15.116 30.63a8.869 8.869 0 0 0 6.678 4.852l33.802 4.911a8.869 8.869 0 0 1 4.915 15.128l-24.46 23.842a8.869 8.869 0 0 0-2.55 7.85l5.774 33.665a8.869 8.869 0 0 1-12.868 9.35l-30.233-15.895a8.869 8.869 0 0 0-8.255 0l-30.233 15.895a8.869 8.869 0 0 1-12.868-9.35l5.774-33.665a8.869 8.869 0 0 0-2.55-7.85l-24.46-23.842a8.869 8.869 0 0 1 4.915-15.128l33.802-4.911a8.869 8.869 0 0 0 6.678-4.852l15.116-30.63a8.869 8.869 0 0 1 15.907 0z"></path><path fill="#ffe236" d="M147.117 197.866a8.869 8.869 0 0 0-4.915-15.128l-33.802-4.911a8.869 8.869 0 0 1-6.678-4.852l-15.116-30.63a8.869 8.869 0 0 0-15.907 0l-2.546 5.16c.14.232.288.454.412.705l15.117 30.63a8.869 8.869 0 0 0 6.677 4.85l33.802 4.913a8.869 8.869 0 0 1 4.915 15.127l-24.459 23.842a8.869 8.869 0 0 0-2.55 7.85l5.773 33.665c.047.274.058.54.08.808l5.093 2.678a8.869 8.869 0 0 0 12.868-9.35l-5.774-33.665a8.87 8.87 0 0 1 2.55-7.85Z"></path><path fill="#ffcd85" d="M163.661 354.745a10.01 10.01 0 0 1 2.997-4.97 555.13 555.13 0 0 0 41.168-41.395 555.384 555.384 0 0 0 44.5-56.743 19.536 19.536 0 0 1 22.015-7.473l.417.13a19.673 19.673 0 0 1 12.572 25.71L270 316.093a5 5 0 0 0 4.68 6.76h85.127c11.772 0 21.798 9.154 22.217 20.919a21.711 21.711 0 0 1-21.697 22.502h-.52c11.772 0 21.799 9.154 22.217 20.92a21.711 21.711 0 0 1-21.697 22.502h-14.994c11.772 0 21.799 9.154 22.217 20.919a21.711 21.711 0 0 1-21.696 22.502H331.38a21.71 21.71 0 0 1 21.71 21.71v2.72a21.735 21.735 0 0 1-19.124 21.6c-64.898 7.74-134.115 9.626-196.71-11.98-.36-.124-6.52-2.152-6.497-2.242zm153.596 132.424c-.36-.125-6.52-2.153-6.498-2.243"></path><path fill="#66c1ff" d="M0 339.749h136.703a25.364 25.364 0 0 1 25.365 25.364v112.965a25.364 25.364 0 0 1-25.365 25.364H0"></path><circle cx="115.759" cy="458.442" r="15" fill="#fff"></circle><path fill="#272a33" d="M202.454 105.423a2.237 2.237 0 0 1 .644 1.98l-6.34 36.96a17.237 17.237 0 0 0 25.01 18.17l33.191-17.45a2.234 2.234 0 0 1 2.081 0l33.191 17.45a17.237 17.237 0 0 0 25.01-18.171l-6.339-36.96a2.236 2.236 0 0 1 .643-1.978l26.852-26.174a17.236 17.236 0 0 0-9.552-29.4l-37.109-5.392a2.237 2.237 0 0 1-1.684-1.225L271.456 9.608a17.236 17.236 0 0 0-30.913 0l-16.596 33.626a2.237 2.237 0 0 1-1.683 1.224l-37.108 5.392a17.236 17.236 0 0 0-9.553 29.4Zm-16.947-39.208a2.12 2.12 0 0 1 1.805-1.522l37.109-5.392a17.231 17.231 0 0 0 12.978-9.429l16.595-33.626a2.236 2.236 0 0 1 4.011 0L274.6 49.872a17.232 17.232 0 0 0 12.979 9.43l37.109 5.392a2.236 2.236 0 0 1 1.239 3.815l-26.852 26.175a17.233 17.233 0 0 0-4.957 15.256l6.339 36.958a2.237 2.237 0 0 1-3.245 2.358l-33.191-17.45a17.237 17.237 0 0 0-16.042 0l-33.191 17.45a2.236 2.236 0 0 1-3.245-2.357l6.339-36.958a17.234 17.234 0 0 0-4.957-15.257l-26.852-26.175a2.12 2.12 0 0 1-.566-2.293Zm321.54 137.021a16.37 16.37 0 0 0-9.072-27.92l-33.801-4.912a1.37 1.37 0 0 1-1.032-.749l-15.116-30.63a16.37 16.37 0 0 0-29.357 0l-15.117 30.63a1.37 1.37 0 0 1-1.03.75l-33.802 4.911a16.369 16.369 0 0 0-9.072 27.92l24.459 23.842a1.368 1.368 0 0 1 .393 1.212l-5.774 33.665a16.37 16.37 0 0 0 23.751 17.256l30.233-15.895a1.368 1.368 0 0 1 1.274 0l30.234 15.895a16.37 16.37 0 0 0 23.75-17.256l-5.774-33.666a1.368 1.368 0 0 1 .394-1.21Zm-34.93 13.101a16.366 16.366 0 0 0-4.707 14.489l5.774 33.665a1.369 1.369 0 0 1-1.986 1.443l-30.234-15.895a16.368 16.368 0 0 0-15.234 0l-30.233 15.895a1.369 1.369 0 0 1-1.986-1.443l5.774-33.665a16.366 16.366 0 0 0-4.708-14.49l-24.459-23.84a1.37 1.37 0 0 1 .759-2.336l33.802-4.912a16.367 16.367 0 0 0 12.324-8.954l15.117-30.63a1.369 1.369 0 0 1 2.455 0l15.116 30.63a16.366 16.366 0 0 0 12.325 8.954l33.802 4.912a1.369 1.369 0 0 1 .759 2.335ZM29.412 227.078a1.367 1.367 0 0 1 .394 1.212l-5.773 33.665a16.37 16.37 0 0 0 23.75 17.256l30.233-15.895a1.368 1.368 0 0 1 1.274 0l30.234 15.895a16.37 16.37 0 0 0 23.75-17.256l-5.774-33.666a1.368 1.368 0 0 1 .393-1.21l24.46-23.843a16.37 16.37 0 0 0-9.072-27.92l-33.801-4.912a1.37 1.37 0 0 1-1.031-.749l-15.117-30.63a16.267 16.267 0 0 0-14.678-9.124 16.27 16.27 0 0 0-14.68 9.124l-15.116 30.63a1.37 1.37 0 0 1-1.03.75l-33.802 4.91a16.369 16.369 0 0 0-9.072 27.921Zm-14.335-35.987a1.266 1.266 0 0 1 1.106-.931l33.801-4.912a16.366 16.366 0 0 0 12.325-8.954l15.117-30.63a1.369 1.369 0 0 1 2.455 0l15.116 30.63a16.367 16.367 0 0 0 12.325 8.954l33.802 4.912a1.37 1.37 0 0 1 .76 2.335l-24.46 23.842a16.366 16.366 0 0 0-4.708 14.489l5.774 33.665a1.369 1.369 0 0 1-1.986 1.443l-30.234-15.895a16.368 16.368 0 0 0-15.234 0l-30.232 15.895a1.369 1.369 0 0 1-1.987-1.443l5.774-33.665a16.365 16.365 0 0 0-4.708-14.49l-24.459-23.84a1.267 1.267 0 0 1-.346-1.405Zm123.183 267.35a22.5 22.5 0 1 0-22.5 22.5 22.525 22.525 0 0 0 22.5-22.5Zm-30 0a7.5 7.5 0 1 1 7.5 7.5 7.508 7.508 0 0 1-7.5-7.5Zm281.256-114.933c-.541-15.527-13.867-28.158-29.705-28.158h-81.52l16.06-42.712a27.177 27.177 0 0 0-17.374-35.513l-.41-.127a26.917 26.917 0 0 0-30.424 10.404 551.286 551.286 0 0 1-43.9 55.975 550.483 550.483 0 0 1-40.383 40.62 32.802 32.802 0 0 0-25.156-11.748H7.5a7.5 7.5 0 0 0 0 15h129.203a17.884 17.884 0 0 1 17.864 17.864v112.964a17.884 17.884 0 0 1-17.864 17.864H7.5a7.5 7.5 0 0 0 0 15h129.203a32.747 32.747 0 0 0 22.929-9.351c20.42 5.113 49.461 10.346 92.673 10.345a698.753 698.753 0 0 0 82.559-5.339 29.252 29.252 0 0 0 25.726-29.047v-2.72a29.03 29.03 0 0 0-4.757-15.948 29.266 29.266 0 0 0 19.212-28.529 28.782 28.782 0 0 0-4.75-14.887 28.985 28.985 0 0 0 9.414-49.056 29.952 29.952 0 0 0 1.632-1.556 28.999 28.999 0 0 0 8.174-21.345ZM324.14 373.78h35.67c7.85 0 14.452 6.133 14.715 13.677A14.209 14.209 0 0 1 360.33 402.2h-36.19a7.5 7.5 0 0 0 0 15h21.19c7.85 0 14.455 6.14 14.725 13.687a14.208 14.208 0 0 1-14.205 14.733h-21.71a7.5 7.5 0 1 0 0 15h7.24a14.226 14.226 0 0 1 14.21 14.21v2.72a14.24 14.24 0 0 1-12.508 14.152c-42.887 5.114-105.713 10.1-165.098-3.56a32.731 32.731 0 0 0 1.583-10.065V365.113c0-.899-.046-1.786-.117-2.667l1.477-5.842a2.564 2.564 0 0 1 .765-1.273 565.31 565.31 0 0 0 41.727-41.95 566.358 566.358 0 0 0 45.104-57.51 12.003 12.003 0 0 1 13.6-4.546l.409.126a12.177 12.177 0 0 1 7.778 15.909l-17.33 46.089a12.502 12.502 0 0 0 11.7 16.9h85.13c7.85 0 14.451 6.138 14.715 13.688a14.214 14.214 0 0 1-14.195 14.742h-36.19a7.5 7.5 0 1 0 0 15Z"></path></svg>