<svg xmlns="http://www.w3.org/2000/svg" data-name="Layer 1" viewBox="0 0 32 32" id="movie-promotion"><path fill="#8b8893" d="M25.5 12.87a2 2 0 0 1-.84 1.63 2 2 0 0 1-1.16.37h-2v-4h2a2 2 0 0 1 2 2Z"></path><path fill="#787681" d="M24.66 11.25a2 2 0 0 0-1.16-.38h-.71a2 2 0 0 1 1.14.38 2 2 0 0 1 .84 1.62 2 2 0 0 1-.84 1.63 2 2 0 0 1-1.16.37h.73a2 2 0 0 0 1.16-.37 2 2 0 0 0 .84-1.63 2 2 0 0 0-.84-1.62Z"></path><path fill="#dadadc" d="M13.81 28.05H6.63L4.78 14.83l5.32-.5 1.11 7.87.14 1 .11.78.14 1 .11.79.12.88.17.12 1.81 1.28z"></path><path fill="#ed4769" d="M4.96 8.41h7.14v8.93H4.96z"></path><path fill="#eb304a" d="M11.11 8.41h1v8.93h-1z"></path><path fill="#ed4769" d="m3.18 16.45-2.68-.9V10.2l2.68-.9v7.15z"></path><path fill="#e1e1e3" d="M23.66 21.8a27.11 27.11 0 0 0-7.34-4.46 18.73 18.73 0 0 0-4.21-.89V9.3a18.73 18.73 0 0 0 4.21-.89A27.11 27.11 0 0 0 23.66 4Z"></path><path fill="#dadadc" d="M22.66 4.75V21c.63.48 1 .8 1 .8V4s-.37.27-1 .75Z"></path><path fill="#8b8893" d="M11.21 22.2h-.89a.5.5 0 0 0-.5.5.5.5 0 0 0 .5.5h1zm.39 2.8h-1.28a.5.5 0 0 1-.5-.5.5.5 0 0 1 .5-.5h1.14zm.4 1.77h-1.68a.5.5 0 0 1-.5-.5.5.5 0 0 1 .5-.5h1.39l.12.88zM13.89 21.8h-2.74l-.38-2.67H13l.89 2.67z"></path><path fill="#787681" d="M13 19.13h-1l.89 2.67h1L13 19.13z"></path><path fill="#57565c" d="M3.18 8.41h1.79v8.93H3.18z"></path><path fill="#8b8893" d="M27 12.38h5v1h-5zM27.24 7.926l3.916-3.917.708.707-3.918 3.917zM27.149 17.727l.707-.707 4.002 4.002-.707.707z"></path><path d="m31.85 4.73-.7-.73-3.92 3.94.71.7Zm-7.68 5.75V4a.51.51 0 0 0-.3-.46.49.49 0 0 0-.53.08 27 27 0 0 1-7.17 4.37 19.52 19.52 0 0 1-3.56.8v-.38a.5.5 0 0 0-.5-.5H3.18a.5.5 0 0 0-.5.5v.53l-2.34.78a.51.51 0 0 0-.34.48v5.35a.51.51 0 0 0 .34.45l2.34.78v.53a.5.5 0 0 0 .5.5h1.51l1.45 10.31a.49.49 0 0 0 .49.43h7.18a.51.51 0 0 0 .48-.34.49.49 0 0 0-.19-.56l-1.81-1.28-.57-4.07h2.17a.49.49 0 0 0 .48-.65l-.9-2.65a.48.48 0 0 0-.47-.34h-1.79l-.11-.79h1a.5.5 0 0 0 .5-.5V17a19.52 19.52 0 0 1 3.56.8 27 27 0 0 1 7.17 4.37.5.5 0 0 0 .33.12.45.45 0 0 0 .2 0 .51.51 0 0 0 .3-.46v-6.56a2.48 2.48 0 0 0 0-4.79ZM2.68 15.75 1 15.19v-4.63L2.68 10Zm1.78 1.09h-.78V8.91h.78Zm8.18 2.79.56 1.67h-1.62l-.23-1.67Zm-1.44 6.14h-.88a.5.5 0 0 0-.5.5.5.5 0 0 0 .5.5h1a.51.51 0 0 0 .19.29l.7.49H7.07L5.7 17.84h4.39l.61 4.36h-.38a.5.5 0 0 0-.5.5.5.5 0 0 0 .5.5h.52l.16.8h-.63a.5.5 0 0 0-.5.5.5.5 0 0 0 .5.5h.77Zm.41-8.93H5.46V8.91h6.15Zm11.56 3.91a25.6 25.6 0 0 0-6.69-3.89 20.26 20.26 0 0 0-3.87-.86V9.75a19.55 19.55 0 0 0 3.87-.87A25.33 25.33 0 0 0 23.17 5Zm1-6.54v-2.67a1.49 1.49 0 0 1 0 2.67Zm3 3.52 4 4 .7-.71-4-4ZM27 12.38v1h5v-1Z"></path></svg>